<?xml version="1.0" encoding="UTF-8" standalone="no"?>
<!-- Created with Inkscape (http://www.inkscape.org/) -->

<svg
   xmlns:dc="http://purl.org/dc/elements/1.1/"
   xmlns:cc="http://creativecommons.org/ns#"
   xmlns:rdf="http://www.w3.org/1999/02/22-rdf-syntax-ns#"
   xmlns:svg="http://www.w3.org/2000/svg"
   xmlns="http://www.w3.org/2000/svg"
   xmlns:sodipodi="http://sodipodi.sourceforge.net/DTD/sodipodi-0.dtd"
   xmlns:inkscape="http://www.inkscape.org/namespaces/inkscape"
   version="1.0"
   width="420.42859"
   height="420.42859"
   id="svg2"
   inkscape:version="0.48.4 r9939"
   sodipodi:docname="Attitude_indicator_level_flight.svg">
  <metadata
     id="metadata45">
    <rdf:RDF>
      <cc:Work
         rdf:about="">
        <dc:format>image/svg+xml</dc:format>
        <dc:type
           rdf:resource="http://purl.org/dc/dcmitype/StillImage" />
      </cc:Work>
    </rdf:RDF>
  </metadata>
  <sodipodi:namedview
     pagecolor="#ffffff"
     bordercolor="#666666"
     borderopacity="1"
     objecttolerance="10"
     gridtolerance="10"
     guidetolerance="10"
     inkscape:pageopacity="0"
     inkscape:pageshadow="2"
     inkscape:window-width="1566"
     inkscape:window-height="970"
     id="namedview43"
     showgrid="false"
     inkscape:zoom="1.2875855"
     inkscape:cx="152.52913"
     inkscape:cy="188.18629"
     inkscape:window-x="13"
     inkscape:window-y="82"
     inkscape:window-maximized="0"
     inkscape:current-layer="layer2" />
  <defs
     id="defs4" />
  <g
     inkscape:groupmode="layer"
     id="horizon"
     inkscape:label="horizon"
     style="display:inline">
    <g
       style="display:inline"
       transform="translate(-560.90879,-85.86794)"
       id="g2432"
       clip-path="none">
      <g
         transform="matrix(6.4053306,0,0,6.4053306,88.769556,-2010.2309)"
         id="g3384"
         clip-path="none">
        <path
           inkscape:connector-curvature="0"
           d="m 170.41273,335.00235 a 68.235802,68.235802 0 1 1 -136.471598,0 68.235802,68.235802 0 1 1 136.471598,0 z"
           transform="matrix(0.9573119,0,0,0.9573119,8.7138176,39.672034)"
           id="path3382"
           style="fill:#0080ff;fill-opacity:1;fill-rule:nonzero;stroke:none" />
        <path
           inkscape:connector-curvature="0"
           d="m 170.41273,335.00235 a 68.235802,68.235802 0 1 1 -136.471598,0"
           transform="matrix(0.9573119,0,0,0.9573119,8.7138176,39.672034)"
           id="path3380"
           style="fill:#000000;fill-opacity:1;fill-rule:nonzero;stroke:none" />
      </g>
      <path
         inkscape:connector-curvature="0"
         d="m 346.26457,298.08223 845.05713,0"
         id="path3388"
         style="fill:none;stroke:#ffffff;stroke-width:2.64634848px;stroke-linecap:butt;stroke-linejoin:miter;stroke-opacity:1"
         sodipodi:nodetypes="cc" />
      <path
         inkscape:connector-curvature="0"
         d="m 771.12308,302.09802 0,412.33978"
         id="path3398"
         style="fill:none;stroke:#ffffff;stroke-width:2.80285716;stroke-linecap:butt;stroke-linejoin:miter;stroke-miterlimit:4;stroke-opacity:1;stroke-dasharray:none"
         sodipodi:nodetypes="cc" />
      <path
         inkscape:connector-curvature="0"
         d="m 102,352.14343 a 0.46875012,0.46875012 0 1 1 -0.9375,0 0.46875012,0.46875012 0 1 1 0.9375,0 z"
         transform="matrix(4.1880712,0,0,4.1880712,345.90298,-1174.0237)"
         id="path3410"
         style="fill:#0080ff;fill-opacity:1;fill-rule:nonzero;stroke:#ffffff;stroke-width:1;stroke-miterlimit:4;stroke-opacity:1;stroke-dasharray:none;stroke-dashoffset:0" />
      <path
         inkscape:connector-curvature="0"
         d="m 350.92446,331.72809 840.39724,0"
         id="path3434"
         style="fill:none;stroke:#ffffff;stroke-width:2.64634848px;stroke-linecap:butt;stroke-linejoin:miter;stroke-opacity:1"
         sodipodi:nodetypes="cc" />
      <path
         inkscape:connector-curvature="0"
         d="m 356.55168,382.88023 827.58952,0"
         id="path3436"
         style="fill:none;stroke:#ffffff;stroke-width:2.80285716;stroke-linecap:butt;stroke-linejoin:miter;stroke-miterlimit:4;stroke-opacity:1;stroke-dasharray:none"
         sodipodi:nodetypes="cc" />
      <path
         inkscape:connector-curvature="0"
         d="m 377.0449,445.24378 789.7096,0"
         id="path3438"
         style="fill:none;stroke:#ffffff;stroke-width:2.80285716;stroke-linecap:butt;stroke-linejoin:miter;stroke-miterlimit:4;stroke-opacity:1;stroke-dasharray:none"
         sodipodi:nodetypes="cc" />
      <path
         style="fill:none;stroke:#ffffff;stroke-width:2.80285716;stroke-linecap:butt;stroke-linejoin:miter;stroke-miterlimit:4;stroke-opacity:1;stroke-dasharray:none"
         id="path4018"
         d="m 773.92594,300.80683 207.90637,360.5177"
         inkscape:connector-curvature="0"
         sodipodi:nodetypes="cc" />
      <path
         style="fill:none;stroke:#ffffff;stroke-width:2.80285716;stroke-linecap:butt;stroke-linejoin:miter;stroke-miterlimit:4;stroke-opacity:1;stroke-dasharray:none"
         id="path4020"
         d="M 768.23042,300.89663 557.99413,665.29757"
         inkscape:connector-curvature="0"
         sodipodi:nodetypes="cc" />
      <path
         style="fill:none;stroke:#ffffff;stroke-width:2.80285716;stroke-linecap:butt;stroke-linejoin:miter;stroke-miterlimit:4;stroke-opacity:1;stroke-dasharray:none"
         id="path4022"
         d="M 768.32022,300.80683 403.93594,511.15369"
         inkscape:connector-curvature="0"
         sodipodi:nodetypes="cc" />
      <path
         style="fill:none;stroke:#ffffff;stroke-width:2.80285716;stroke-linecap:butt;stroke-linejoin:miter;stroke-miterlimit:4;stroke-opacity:1;stroke-dasharray:none"
         id="path4024"
         d="M 773.92594,300.80683 1135.9803,510.37704"
         inkscape:connector-curvature="0"
         sodipodi:nodetypes="cc" />
    </g>
  </g>
  <g
     inkscape:groupmode="layer"
     id="horizonclip"
     inkscape:label="horizonclip"
     style="display:inline">
    <path
       transform="matrix(0.76887893,0,0,0.76887893,47.299645,75.639405)"
       d="m 393.76024,176.56129 a 180.95885,180.95885 0 1 1 -361.917695,0 180.95885,180.95885 0 1 1 361.917695,0 z"
       sodipodi:ry="180.95885"
       sodipodi:rx="180.95885"
       sodipodi:cy="176.56129"
       sodipodi:cx="212.80139"
       id="path4036"
       style="fill:#ff0000;fill-rule:evenodd;stroke:#000000;stroke-width:1px;stroke-linecap:butt;stroke-linejoin:miter;stroke-opacity:1;display:inline"
       sodipodi:type="arc" />
  </g>
  <g
     inkscape:groupmode="layer"
     id="mask"
     inkscape:label="mask"
     style="display:inline">
    <path
       inkscape:connector-curvature="0"
       d="m 373.10526,73.968439 c -116.03829,0 -210.21426,94.176001 -210.21429,210.214291 0,116.03829 94.17603,210.21429 210.21429,210.21429 116.03829,0 210.21432,-94.176 210.21429,-210.21429 0,-116.03829 -94.17598,-210.214291 -210.21429,-210.214291 z m 0,78.042051 c 72.93839,0 132.17223,59.23388 132.17223,132.17224 3e-5,72.93836 -59.23387,132.08464 -132.17223,132.08464 -72.93833,-2e-5 -132.17224,-59.14628 -132.17224,-132.08464 0,-72.93833 59.23388,-132.17224 132.17224,-132.17224 z"
       id="path2396"
       style="fill:#808080;fill-opacity:1;fill-rule:nonzero;stroke:none;display:inline"
       transform="translate(-162.89095,-73.96844)" />
  </g>
  <g
     inkscape:groupmode="layer"
     id="turret"
     inkscape:label="turret"
     style="display:inline">
    <g
       transform="translate(-162.89095,-73.96844)"
       style="display:inline"
       id="g3217">
      <path
         inkscape:connector-curvature="0"
         d="m 351.07654,358.79473 -27.94098,48.34929 -21.45937,0 -27.41545,47.3858 21.70348,18.10902 76.65929,11.40857 0,0.17518 0.52553,-0.0876 0.52554,0.0876 0,-0.17518 73.40929,-7.65857 24.86589,-21.85902 -27.32786,-47.3858 -21.45937,0 -27.94099,-48.34929 -21.54696,0 -1.05107,0 -21.54697,0 z"
         id="path3331"
         style="fill:#000000;fill-opacity:1;fill-rule:evenodd;stroke:#7f7f7f;stroke-width:1;stroke-linecap:butt;stroke-linejoin:miter;stroke-miterlimit:4;stroke-opacity:1;stroke-dasharray:none" />
      <path
         inkscape:connector-curvature="0"
         d="m 153.5,280.73718 a 11.125,11.125 0 1 1 -22.25,0 11.125,11.125 0 1 1 22.25,0 z"
         transform="matrix(2.8028572,0,0,2.8028572,-25.951558,-365.35757)"
         id="path3354"
         style="fill:#c5c5c5;fill-opacity:1;fill-rule:nonzero;stroke:none" />
      <path
         inkscape:connector-curvature="0"
         d="m 148.875,193.98718 a 11.875,11.875 0 1 1 -23.75,0"
         transform="matrix(3.4814435,0,0,3.4814435,-103.85252,-391.17268)"
         id="path3360"
         style="fill:none;stroke:#ffffff;stroke-width:2.012712;stroke-miterlimit:4;stroke-opacity:1;stroke-dasharray:none;stroke-dashoffset:0" />
      <path
         inkscape:connector-curvature="0"
         d="m 335.58212,285.1838 -45.54642,0"
         id="path3362"
         style="fill:none;stroke:#ffffff;stroke-width:7.00714302;stroke-linecap:butt;stroke-linejoin:miter;stroke-miterlimit:4;stroke-opacity:1;stroke-dasharray:none" />
      <path
         inkscape:connector-curvature="0"
         d="m 456.22525,285.1838 -45.54642,0"
         id="path3366"
         style="fill:none;stroke:#ffffff;stroke-width:7.00714302;stroke-linecap:butt;stroke-linejoin:miter;stroke-miterlimit:4;stroke-opacity:1;stroke-dasharray:none" />
      <path
         inkscape:connector-curvature="0"
         d="m 373.10524,327.47126 0,29.97653"
         id="path3368"
         style="fill:none;stroke:#ffffff;stroke-width:15.67924118;stroke-linecap:butt;stroke-linejoin:miter;stroke-miterlimit:4;stroke-opacity:1;stroke-dasharray:none" />
      <path
         inkscape:connector-curvature="0"
         d="m 139.5,184.30359 a 6.375,6.375 0 1 1 -12.75,0 6.375,6.375 0 1 1 12.75,0 z"
         transform="matrix(1.1764706,0,0,1.1764706,216.48759,67.354982)"
         id="path2451"
         style="fill:#ffffff;fill-opacity:1;fill-rule:nonzero;stroke:none" />
      <path
         inkscape:connector-curvature="0"
         d="m 373.10524,324.59495 0,-34.14584"
         id="path3223"
         style="fill:none;stroke:#ffffff;stroke-width:3.05163884;stroke-linecap:butt;stroke-linejoin:miter;stroke-miterlimit:4;stroke-opacity:1;stroke-dasharray:none" />
    </g>
  </g>
  <g
     inkscape:groupmode="layer"
     id="tickdeco"
     inkscape:label="tickdeco"
     style="display:inline">
    <g
       transform="translate(-162.89095,-73.96844)"
       id="layer1">
      <path
         inkscape:connector-curvature="0"
         d="m 365.98625,124.72022 14.18947,0 27.85339,-41.955266 -70.15902,-0.08759 28.11616,42.042856 z"
         id="path3288"
         style="fill:#ffffff;fill-opacity:1;fill-rule:evenodd;stroke:none" />
      <rect
         width="10.207512"
         height="22.986498"
         x="368.0015"
         y="104.01105"
         id="rect3290"
         style="fill:#808080;fill-opacity:1;fill-rule:nonzero;stroke:none" />
      <path
         inkscape:connector-curvature="0"
         d="m 373.10526,105.68389 0,46.26645"
         id="path3184"
         style="fill:none;stroke:#ffffff;stroke-width:7.02346849;stroke-linecap:butt;stroke-linejoin:miter;stroke-miterlimit:4;stroke-opacity:1;stroke-dasharray:none" />
      <path
         inkscape:connector-curvature="0"
         d="m 203.38679,286.30006 37.73495,0"
         id="path3186"
         style="fill:none;stroke:#ffffff;stroke-width:5.60571432;stroke-linecap:butt;stroke-linejoin:miter;stroke-miterlimit:4;stroke-opacity:1;stroke-dasharray:none" />
      <path
         inkscape:connector-curvature="0"
         d="m 225.79552,199.81213 32.62666,18.83699"
         id="path3190"
         style="fill:none;stroke:#ffffff;stroke-width:5.60571432;stroke-linecap:butt;stroke-linejoin:miter;stroke-miterlimit:4;stroke-opacity:1;stroke-dasharray:none" />
      <path
         inkscape:connector-curvature="0"
         d="m 286.32936,138.42743 18.76527,32.50232"
         id="path3192"
         style="fill:none;stroke:#ffffff;stroke-width:5.60571432;stroke-linecap:butt;stroke-linejoin:miter;stroke-miterlimit:4;stroke-opacity:1;stroke-dasharray:none" />
      <path
         inkscape:connector-curvature="0"
         d="m 460,138.49436 -18.71098,32.40837"
         id="path3194"
         style="fill:none;stroke:#ffffff;stroke-width:5.6632762;stroke-linecap:butt;stroke-linejoin:miter;stroke-miterlimit:4;stroke-opacity:1;stroke-dasharray:none" />
      <path
         inkscape:connector-curvature="0"
         d="m 520.32752,200.09984 -32.25794,18.62409"
         id="path3198"
         style="fill:none;stroke:#ffffff;stroke-width:5.60571432;stroke-linecap:butt;stroke-linejoin:miter;stroke-miterlimit:4;stroke-opacity:1;stroke-dasharray:none" />
      <path
         inkscape:connector-curvature="0"
         d="m 505.21171,286.30006 37.3007,0"
         id="path3247"
         style="fill:none;stroke:#ffffff;stroke-width:5.60571432;stroke-linecap:butt;stroke-linejoin:miter;stroke-miterlimit:4;stroke-opacity:1;stroke-dasharray:none" />
      <path
         inkscape:connector-curvature="0"
         d="m 344.33712,133.99199 3.61367,20.49399"
         id="path3258"
         style="fill:none;stroke:#ffffff;stroke-width:2.80285716px;stroke-linecap:butt;stroke-linejoin:miter;stroke-opacity:1" />
      <path
         inkscape:connector-curvature="0"
         d="m 319.97864,140.87258 7.11746,19.55515"
         id="path3260"
         style="fill:none;stroke:#ffffff;stroke-width:2.80285716px;stroke-linecap:butt;stroke-linejoin:miter;stroke-opacity:1" />
      <path
         inkscape:connector-curvature="0"
         d="m 404.22084,134.47714 -3.61367,20.49398"
         id="path3262"
         style="fill:none;stroke:#ffffff;stroke-width:2.80285716px;stroke-linecap:butt;stroke-linejoin:miter;stroke-opacity:1" />
      <path
         inkscape:connector-curvature="0"
         d="m 428.23928,141.65315 -7.11746,19.55514"
         id="path3264"
         style="fill:none;stroke:#ffffff;stroke-width:2.80285716px;stroke-linecap:butt;stroke-linejoin:miter;stroke-opacity:1" />
      <path
         inkscape:connector-curvature="0"
         d="m 262.14286,394.14789 a 71.785715,71.785715 0 1 1 -143.57143,0 71.785715,71.785715 0 1 1 143.57143,0 z"
         transform="matrix(2.8338952,0,0,2.8338952,-166.34696,-832.79107)"
         id="path3178"
         style="fill:none;stroke:#000000;stroke-width:4.78571415;stroke-miterlimit:4;stroke-opacity:1;stroke-dasharray:none;stroke-dashoffset:0" />
    </g>
  </g>
</svg>
