<?xml version="1.0" encoding="UTF-8" standalone="no"?>
<!-- Created with Inkscape (http://www.inkscape.org/) -->

<svg
   xmlns:dc="http://purl.org/dc/elements/1.1/"
   xmlns:cc="http://creativecommons.org/ns#"
   xmlns:rdf="http://www.w3.org/1999/02/22-rdf-syntax-ns#"
   xmlns:svg="http://www.w3.org/2000/svg"
   xmlns="http://www.w3.org/2000/svg"
   xmlns:xlink="http://www.w3.org/1999/xlink"
   xmlns:sodipodi="http://sodipodi.sourceforge.net/DTD/sodipodi-0.dtd"
   xmlns:inkscape="http://www.inkscape.org/namespaces/inkscape"
   width="340"
   height="340"
   id="svg4201"
   sodipodi:version="0.32"
   inkscape:version="0.48.4 r9939"
   sodipodi:docname="Heading_indicator.svg"
   inkscape:output_extension="org.inkscape.output.svg.inkscape"
   version="1.0">
  <defs
     id="defs4203">
    <linearGradient
       id="linearGradient5855">
      <stop
         style="stop-color:#ececec;stop-opacity:1;"
         offset="0"
         id="stop5857" />
      <stop
         style="stop-color:#616161;stop-opacity:1;"
         offset="1"
         id="stop5859" />
    </linearGradient>
    <linearGradient
       id="linearGradient5786">
      <stop
         style="stop-color:#363636;stop-opacity:1;"
         offset="0"
         id="stop5788" />
      <stop
         style="stop-color:#000000;stop-opacity:1;"
         offset="1"
         id="stop5790" />
    </linearGradient>
    <linearGradient
       id="linearGradient5747">
      <stop
         style="stop-color:#545454;stop-opacity:1;"
         offset="0"
         id="stop5749" />
      <stop
         id="stop5755"
         offset="0.5"
         style="stop-color:#ababab;stop-opacity:1;" />
      <stop
         style="stop-color:#656565;stop-opacity:1;"
         offset="1"
         id="stop5751" />
    </linearGradient>
    <filter
       inkscape:collect="always"
       id="filter5743">
      <feGaussianBlur
         inkscape:collect="always"
         stdDeviation="2.3632328"
         id="feGaussianBlur5745" />
    </filter>
    <linearGradient
       inkscape:collect="always"
       xlink:href="#linearGradient5747"
       id="linearGradient5753"
       x1="132.14786"
       y1="111.15554"
       x2="263.22894"
       y2="286.43082"
       gradientUnits="userSpaceOnUse" />
    <linearGradient
       inkscape:collect="always"
       xlink:href="#linearGradient5786"
       id="linearGradient5792"
       x1="280.22632"
       y1="115.96942"
       x2="191.42857"
       y2="187.36218"
       gradientUnits="userSpaceOnUse" />
    <radialGradient
       inkscape:collect="always"
       xlink:href="#linearGradient5855"
       id="radialGradient5861"
       cx="112.06957"
       cy="277.9437"
       fx="112.06957"
       fy="277.9437"
       r="30.441849"
       gradientUnits="userSpaceOnUse" />
    <linearGradient
       inkscape:collect="always"
       xlink:href="#linearGradient5786"
       id="linearGradient5945"
       gradientUnits="userSpaceOnUse"
       x1="280.22632"
       y1="115.96942"
       x2="191.42857"
       y2="187.36218" />
    <linearGradient
       inkscape:collect="always"
       xlink:href="#linearGradient5747"
       id="linearGradient5947"
       gradientUnits="userSpaceOnUse"
       x1="132.14786"
       y1="111.15554"
       x2="263.22894"
       y2="286.43082" />
    <radialGradient
       inkscape:collect="always"
       xlink:href="#linearGradient5855"
       id="radialGradient5949"
       gradientUnits="userSpaceOnUse"
       cx="112.06957"
       cy="277.9437"
       fx="112.06957"
       fy="277.9437"
       r="30.441849" />
  </defs>
  <sodipodi:namedview
     id="base"
     pagecolor="#ffffff"
     bordercolor="#666666"
     borderopacity="1.0"
     gridtolerance="10000"
     guidetolerance="10"
     objecttolerance="10"
     inkscape:pageopacity="0.0"
     inkscape:pageshadow="2"
     inkscape:zoom="2.56"
     inkscape:cx="171.19772"
     inkscape:cy="165.06638"
     inkscape:document-units="px"
     inkscape:current-layer="foreground"
     showgrid="false"
     showguides="false"
     inkscape:guide-bbox="true"
     inkscape:window-width="1288"
     inkscape:window-height="943"
     inkscape:window-x="10"
     inkscape:window-y="34"
     inkscape:window-maximized="0">
    <sodipodi:guide
       orientation="1,0"
       position="197.50061,988.00022"
       id="guide4772" />
    <sodipodi:guide
       orientation="0,1"
       position="77.137277,867.5"
       id="guide4774" />
  </sodipodi:namedview>
  <metadata
     id="metadata4206">
    <rdf:RDF>
      <cc:Work
         rdf:about="">
        <dc:format>image/svg+xml</dc:format>
        <dc:type
           rdf:resource="http://purl.org/dc/dcmitype/StillImage" />
      </cc:Work>
    </rdf:RDF>
  </metadata>
  <g
     inkscape:groupmode="layer"
     id="background"
     inkscape:label="background"
     style="display:inline"
     transform="translate(-30.452878,-17.814455)">
    <path
       sodipodi:type="arc"
       style="fill:#262626;fill-opacity:1;fill-rule:evenodd;stroke:none;display:inline"
       id="path5798"
       sodipodi:cx="191.42857"
       sodipodi:cy="187.36218"
       sodipodi:rx="114.28571"
       sodipodi:ry="114.28571"
       d="m 305.71429,187.36218 a 114.28571,114.28571 0 1 1 -228.57143,0 114.28571,114.28571 0 1 1 228.57143,0 z"
       transform="matrix(1.4616676,0,0,1.4616676,-79.352062,-86.046775)" />
    <path
       transform="matrix(1.071875,0,0,1.071875,-4.7346208,-13.014379)"
       d="m 305.71429,187.36218 a 114.28571,114.28571 0 1 1 -228.57143,0 114.28571,114.28571 0 1 1 228.57143,0 z"
       sodipodi:ry="114.28571"
       sodipodi:rx="114.28571"
       sodipodi:cy="187.36218"
       sodipodi:cx="191.42857"
       id="path5795"
       style="fill:#000000;fill-opacity:1;fill-rule:evenodd;stroke:none;display:inline"
       sodipodi:type="arc" />
    <path
       transform="matrix(1.0365197,0,0,1.0365197,2.0334012,-6.3901248)"
       d="m 305.71429,187.36218 a 114.28571,114.28571 0 1 1 -228.57143,0 114.28571,114.28571 0 1 1 228.57143,0 z"
       sodipodi:ry="114.28571"
       sodipodi:rx="114.28571"
       sodipodi:cy="187.36218"
       sodipodi:cx="191.42857"
       id="path4815"
       style="fill:url(#linearGradient5945);fill-opacity:1;fill-rule:evenodd;stroke:none;display:inline"
       sodipodi:type="arc" />
    <path
       sodipodi:type="arc"
       style="fill:none;stroke:#ffffff;stroke-width:0.4664723;stroke-linecap:butt;stroke-linejoin:miter;stroke-miterlimit:4;stroke-opacity:1;stroke-dasharray:none;stroke-dashoffset:0;display:inline"
       id="path4261"
       sodipodi:cx="191.42857"
       sodipodi:cy="187.36218"
       sodipodi:rx="114.28571"
       sodipodi:ry="114.28571"
       d="m 305.71429,187.36218 a 114.28571,114.28571 0 1 1 -228.57143,0 114.28571,114.28571 0 1 1 228.57143,0 z"
       transform="matrix(1.071875,0,0,1.071875,-4.7346211,-13.014379)" />
    <path
       id="path4808"
       style="fill:#000000;fill-opacity:1;fill-rule:evenodd;stroke:none;display:inline"
       d="m 336.08489,187.81447 c 0,74.86886 -60.76314,135.63199 -135.632,135.63199 -74.86885,0 -135.631987,-60.76313 -135.631987,-135.63199 0,-74.86885 60.763137,-135.631988 135.631987,-135.631988 74.86886,0 135.632,60.763138 135.632,135.631988 z m 26.26396,0 c 0,89.36657 -72.52939,161.89596 -161.89596,161.89596 -89.36656,0 -161.895954,-72.52939 -161.895954,-161.89596 0,-89.366566 72.529394,-161.895955 161.895954,-161.895955 89.36657,0 161.89596,72.529389 161.89596,161.895955 z"
       inkscape:connector-curvature="0" />
  </g>
  <g
     inkscape:groupmode="layer"
     id="compass"
     inkscape:label="compass"
     style="display:inline">
    <g
       style="display:inline"
       id="g5978"
       transform="matrix(0.99999909,0.0013712,-0.0013712,0.99999909,-30.195131,-18.089174)">
      <path
         d="m 216.90814,94.49218 4.09487,-23.223189 m -11.94238,18.158598 1.71123,-19.559544 m -18.9267,19.559544 -1.71124,-19.559544 M 174.90277,92.46009 169.82095,73.49452 m -11.09371,24.839006 -8.28848,-17.774724 m -6.62717,26.363508 -11.25404,-16.072437 m -1.9797,27.089557 -13.87501,-13.87501 m 2.85789,27.10875 -16.07243,-11.25404 m 7.48703,26.17127 -17.776782,-8.28945 m 11.905232,24.46481 -18.971839,-5.08349 m 15.941039,22.02508 -19.563784,-1.71162 m 19.564454,18.9258 -19.564191,1.71165 m 22.559281,15.23939 -18.939106,5.07472 m 24.874326,11.0779 -17.808939,8.30444 m 26.386679,6.61147 -16.09916,11.27275 m 27.12657,1.94441 -0.0156,0.0156 m 0,0 -13.89673,13.89674 m 27.11845,-2.86916 -11.27496,16.10232 m 26.18995,-7.51471 -8.29028,17.77857 m 24.46478,-11.90601 -5.08298,18.96995 m 22.02411,-15.93788 -1.71164,19.5642 m 18.92579,-19.5642 1.71164,19.5642 m 15.22949,-22.59627 5.08298,18.96995 m 11.0915,-24.84251 8.29029,17.77857 m 6.62472,-26.36621 11.27497,16.10232 m 1.93113,-27.14552 0.0156,0.0156 m 0,0 13.89064,13.89064 m -2.87886,-27.12343 16.09917,11.27276 m -7.49575,-26.17667 17.79054,8.29586 m -11.88099,-24.46046 18.9391,5.07473 m -15.94405,-22.02578 19.5642,1.71165 m -19.56353,-18.92583 19.56379,-1.71162 M 295.802,162.26569 314.77383,157.1822 m -24.84338,-11.09187 17.77677,-8.28945 m -26.37955,-6.61562 16.08229,-11.26095 m -27.08205,-1.98495 13.875,-13.87501 m -27.10873,2.8579 11.25403,-16.072444 m -26.16968,7.483665 8.28848,-17.774729 m -24.464,11.901286 5.0818,-18.96557 m -30.63193,19.55803 0,-23.682675 M 184.0126,94.576979 179.90206,71.264951 M 168.06662,98.833898 159.9801,76.616362 M 153.11847,105.82882 141.28291,85.329031 M 139.56215,115.24767 124.351,97.119736 m 3.53595,29.804644 -18.12847,-15.21159 m 8.69186,28.75746 -20.504025,-11.83801 m 13.530915,26.79771 -22.220711,-8.08769 m 17.935541,24.02777 -23.316547,-4.11134 m 21.792827,20.55573 -23.688325,0 m 25.213525,16.44416 -23.317511,4.1115 m 27.603981,11.82783 -22.22252,8.08833 m 29.18307,6.87804 -20.492936,11.8316 m 29.943586,1.70503 -18.13124,15.21393 m 29.80644,-3.53874 -15.21392,18.13126 m 28.76973,-8.71381 -11.85152,20.52745 m 26.79873,-13.53368 -8.08834,22.22251 m 24.02767,-17.93607 -4.10616,23.28721 m 20.5503,-21.79325 0,23.68832 m 16.44413,-25.18228 4.10617,23.28721 m 11.83318,-27.57365 8.08834,22.22251 m 6.85885,-29.21631 11.85154,20.52745 m 1.70424,-29.94487 15.21394,18.13124 m -3.53873,-29.80644 18.13126,15.21391 m -8.68061,-28.75056 20.49294,11.8316 m -13.5324,-26.79796 22.22253,8.08833 m -17.93606,-24.02768 23.31751,4.11151 m -21.7923,-20.55564 23.68831,0 m -25.21203,-16.4444 23.31654,-4.11134 m -27.60169,-11.82875 22.2207,-8.08769 m -29.19385,-6.87202 20.50402,-11.838 m -29.94063,-1.70785 18.12848,-15.2116 m -29.80368,3.5349 15.20665,-18.122585 m -28.76297,8.703725 11.83555,-20.499792 m -26.7837,13.504875 8.08652,-22.217541"
         style="fill:none;stroke:#ffffff;stroke-width:3;stroke-linecap:butt;stroke-linejoin:miter;stroke-miterlimit:4;stroke-opacity:1;stroke-dasharray:none;stroke-dashoffset:0;display:inline"
         id="path5639"
         inkscape:connector-curvature="0" />
      <path
         id="text5666"
         d="m 192.03248,118.07186 0,-21.474608 2.91504,0 11.2793,16.860358 0,-16.860358 2.72461,0 0,21.474608 -2.91504,0 -11.2793,-16.875 0,16.875 -2.72461,0"
         style="font-size:30px;font-style:normal;font-variant:normal;font-weight:normal;font-stretch:normal;fill:#ffffff;fill-opacity:1;stroke:none;display:inline;font-family:Arial;-inkscape-font-specification:Arial"
         inkscape:connector-curvature="0" />
      <path
         id="text5670"
         d="m 191.89048,265.1002 2.68067,0.23437 c 0.12694,-1.07422 0.41991,-1.95801 0.8789,-2.65136 0.46875,-0.6836 1.1914,-1.24024 2.16797,-1.66993 0.97656,-0.41992 2.07519,-0.62988 3.2959,-0.62988 1.08397,0 2.041,0.16113 2.87109,0.4834 0.83007,0.32226 1.4453,0.76172 1.84571,1.31836 0.41014,0.5664 0.61521,1.18164 0.61523,1.8457 -2e-5,0.67382 -0.19533,1.25976 -0.58594,1.75782 -0.39064,0.5078 -1.03517,0.9326 -1.93359,1.27441 -0.57619,0.2246 -1.8506,0.57128 -3.82324,1.04004 -1.97267,0.4785 -3.3545,0.92772 -4.14551,1.34765 -1.0254,0.5371 -1.792,1.20116 -2.29981,1.99219 -0.49804,0.80077 -0.74707,1.69432 -0.74707,2.68067 0,1.08396 0.30762,2.0947 0.92286,3.03222 0.61523,0.94725 1.51366,1.66502 2.69531,2.15332 1.18163,0.48826 2.49511,0.7324 3.94043,0.73242 1.59178,-2e-5 2.99315,-0.25881 4.2041,-0.77636 1.22069,-0.50784 2.15819,-1.25979 2.8125,-2.25586 0.65428,-0.99611 1.00584,-2.12404 1.05469,-3.38379 l -2.72461,-0.20508 c -0.1465,1.35741 -0.64455,2.3828 -1.49414,3.07617 -0.83986,0.69334 -2.08498,1.04002 -3.73535,1.04004 -1.71876,-2e-5 -2.97364,-0.3174 -3.76465,-0.95215 -0.78126,-0.62501 -1.17188,-1.38185 -1.17188,-2.2705 0,-0.7715 0.27832,-1.40627 0.83496,-1.9043 0.54687,-0.49806 1.97265,-1.01076 4.27735,-1.53809 2.31444,-0.51759 3.90135,-0.97169 4.76074,-1.3623 1.24998,-0.57618 2.17283,-1.30861 2.76855,-2.19727 0.59569,-0.87891 0.89354,-1.89454 0.89356,-3.04687 -2e-5,-1.14259 -0.32717,-2.22169 -0.98145,-3.23731 -0.65431,-1.00586 -1.59669,-1.79199 -2.82715,-2.3584 -1.22071,-0.55664 -2.59766,-0.83496 -4.13085,-0.83496 -1.94337,0 -3.57423,0.28321 -4.89258,0.84961 -1.3086,0.56641 -2.33887,1.41602 -3.09082,2.54883 -0.74219,1.14258 -1.13282,2.43164 -1.17188,3.86719"
         style="font-size:30px;font-style:normal;font-variant:normal;font-weight:normal;font-stretch:normal;fill:#ffffff;fill-opacity:1;stroke:none;display:inline;font-family:Arial;-inkscape-font-specification:Arial"
         inkscape:connector-curvature="0" />
      <path
         id="text5674"
         d="m 131.09492,179.70744 -21.47461,-5.69824 0,2.91503 14.07715,3.26661 c 1.47461,0.35155 2.93946,0.65429 4.39453,0.9082 -2.29492,0.54687 -3.61816,0.86913 -3.96973,0.9668 l -14.50195,4.08691 0,3.42773 10.86914,3.07618 c 2.69532,0.77146 5.2295,1.3281 7.60254,1.66992 -1.35742,0.27341 -2.91503,0.62986 -4.67285,1.06933 l -13.79883,3.36914 0,2.85645 21.47461,-5.88867 0,-2.73926 -16.36231,-4.52637 c -1.36717,-0.38087 -2.20701,-0.60548 -2.51953,-0.67383 0.98635,-0.22462 1.82619,-0.43458 2.51953,-0.62988 l 16.36231,-4.55566 0,-2.90039"
         style="font-size:30px;font-style:normal;font-variant:normal;font-weight:normal;font-stretch:normal;fill:#ffffff;fill-opacity:1;stroke:none;display:inline;font-family:Arial;-inkscape-font-specification:Arial"
         inkscape:connector-curvature="0" />
      <path
         id="text5678"
         d="m 292.10749,179.55157 -21.47461,0 0,15.52734 2.53418,0 0,-12.68554 6.57715,0 0,11.87988 2.51953,0 0,-11.87988 7.30957,0 0,13.18359 2.53418,0 0,-16.02539"
         style="font-size:30px;font-style:normal;font-variant:normal;font-weight:normal;font-stretch:normal;fill:#ffffff;fill-opacity:1;stroke:none;display:inline;font-family:Arial;-inkscape-font-specification:Arial"
         inkscape:connector-curvature="0" />
      <path
         id="text5682"
         d="m 231.76021,119.19702 1.91641,0.72755 c -0.94941,2.48295 -0.68607,4.15054 0.79001,5.00275 0.79723,0.46029 1.68159,0.52357 2.65309,0.18987 0.97603,-0.3416 1.77395,-1.04915 2.39375,-2.12266 0.58332,-1.01036 0.78434,-1.97834 0.60307,-2.90392 -0.1813,-0.92559 -0.66266,-1.61396 -1.44411,-2.06514 -0.33154,-0.1914 -0.78757,-0.34945 -1.3681,-0.47413 l 1.28137,-1.75454 0.25865,0.18091 c 0.86037,0.49675 1.71161,0.63563 2.55372,0.41666 0.84207,-0.21896 1.51833,-0.77047 2.02876,-1.65455 0.46939,-0.81301 0.6204,-1.59411 0.45304,-2.34328 -0.16283,-0.75704 -0.56787,-1.32241 -1.21512,-1.69612 -0.67095,-0.38736 -1.38967,-0.455 -2.15616,-0.20293 -0.75406,0.24877 -1.49729,0.8616 -2.22969,1.8385 l -1.52175,-1.38377 c 1.07777,-1.35635 2.22219,-2.19011 3.43326,-2.50129 1.21105,-0.31114 2.36518,-0.14998 3.46238,0.48347 1.15243,0.66537 1.88512,1.65673 2.19808,2.97405 0.31293,1.31735 0.0957,2.62328 -0.65167,3.91779 -0.45575,0.78936 -1.03272,1.38767 -1.73093,1.79494 -0.69035,0.41183 -1.44362,0.61367 -2.25982,0.60551 0.47717,0.486 0.79645,1.01764 0.95782,1.59493 0.16134,0.5773 0.18102,1.23592 0.059,1.97588 -0.12201,0.73995 -0.39949,1.48487 -0.83242,2.23475 -0.92058,1.59448 -2.14447,2.62969 -3.67167,3.10563 -1.52266,0.46804 -2.93915,0.32381 -4.24945,-0.4327 -1.2156,-0.70182 -1.99049,-1.73859 -2.32467,-3.11028 -0.33418,-1.37169 -0.12981,-2.83765 0.61312,-4.39788"
         style="font-size:28px;font-style:normal;font-variant:normal;font-weight:bold;font-stretch:normal;fill:#ffffff;fill-opacity:1;stroke:none;display:inline;font-family:Arial Narrow;-inkscape-font-specification:Arial Narrow Bold"
         inkscape:connector-curvature="0" />
      <path
         id="text5686"
         d="m 276.67998,149.25279 -1.17064,-1.64481 c 0.79624,-0.68074 1.29038,-1.29229 1.48244,-1.83468 0.28364,-0.78472 0.23635,-1.50465 -0.14189,-2.15982 -0.58791,-1.01825 -1.69107,-1.47064 -3.30947,-1.35716 -1.39465,0.10005 -3.15986,0.76135 -5.29564,1.98393 0.99018,-0.0349 1.85412,0.13984 2.59183,0.52433 0.74557,0.37993 1.31432,0.90931 1.70626,1.58815 0.65168,1.12876 0.70599,2.40773 0.16293,3.83688 -0.53065,1.43249 -1.6524,2.6432 -3.36526,3.63213 -1.16035,0.66992 -2.33718,1.0652 -3.53047,1.18583 -1.18087,0.12396 -2.18767,-0.0157 -3.0204,-0.41899 -0.83274,-0.40329 -1.47926,-1.00355 -1.93954,-1.80078 -0.82943,-1.43661 -0.86577,-2.99433 -0.10899,-4.67315 0.75676,-1.67883 2.64674,-3.39096 5.66994,-5.1364 3.35471,-1.93685 6.0182,-2.83787 7.99047,-2.70308 1.98013,0.13024 3.40087,0.9413 4.26221,2.43315 0.62433,1.08141 0.77514,2.19941 0.45245,3.35399 -0.31028,1.15792 -1.12236,2.22141 -2.43623,3.19048 m -11.60507,-2.81933 c -1.25507,0.72462 -2.09452,1.60396 -2.51839,2.63802 -0.41599,1.02951 -0.39838,1.93498 0.0528,2.71644 0.39648,0.68673 1.10881,1.09111 2.13702,1.21316 1.03275,0.12994 2.17666,-0.1674 3.43173,-0.89201 1.23136,-0.71094 2.03153,-1.53075 2.40048,-2.45943 0.36892,-0.92868 0.33009,-1.7798 -0.11651,-2.55336 -0.43751,-0.75778 -1.15975,-1.22486 -2.1667,-1.40127 -0.99451,-0.17305 -2.06799,0.0731 -3.22043,0.73845"
         style="font-size:28px;font-style:normal;font-variant:normal;font-weight:bold;font-stretch:normal;fill:#ffffff;fill-opacity:1;stroke:none;display:inline;font-family:Arial Narrow;-inkscape-font-specification:Arial Narrow Bold"
         inkscape:connector-curvature="0" />
      <path
         id="text5690"
         d="m 264.11758,217.78228 0.93945,-1.62718 12.61065,7.28076 c -0.22396,-0.62773 -0.38486,-1.39006 -0.48269,-2.287 -0.0905,-0.89273 -0.1007,-1.67067 -0.0306,-2.33381 l 1.91304,1.10449 c -0.003,1.19043 0.16856,2.34018 0.5153,3.44926 0.3425,1.11638 0.78517,2.01697 1.32803,2.70176 l -0.60938,1.05547 -16.18385,-9.34375 m -5.42315,13.78575 -1.90204,-1.09814 5.04638,-8.7406 c 0.78231,0.42235 1.51025,1.15046 2.1838,2.18435 0.66932,1.04121 1.27815,2.58501 1.82647,4.63138 0.63393,2.38897 1.22593,4.05499 1.77603,4.99805 0.55741,0.94728 1.1916,1.62616 1.90258,2.03666 0.82092,0.47394 1.62756,0.61715 2.41994,0.42964 0.79546,-0.17599 1.39632,-0.6158 1.80258,-1.31943 0.43586,-0.75497 0.51492,-1.53512 0.23717,-2.34049 -0.27776,-0.80538 -0.93704,-1.50851 -1.97784,-2.10942 l 1.17374,-1.55055 c 1.47883,1.01017 2.38879,2.11702 2.72987,3.32055 0.34415,1.21507 0.15865,2.44196 -0.5565,3.68068 -0.77866,1.34864 -1.82132,2.10509 -3.12797,2.26935 -1.31089,0.17157 -2.54538,-0.077 -3.70346,-0.74556 -1.02616,-0.59247 -1.85542,-1.43283 -2.48779,-2.52111 -0.62504,-1.08407 -1.28384,-2.83752 -1.97641,-5.26034 -0.43091,-1.53881 -0.74342,-2.55482 -0.93753,-3.04802 -0.19835,-0.48589 -0.42632,-0.92047 -0.6839,-1.30373 l -3.74512,6.48673"
         style="font-size:26px;font-style:normal;font-variant:normal;font-weight:bold;font-stretch:normal;fill:#ffffff;fill-opacity:1;stroke:none;display:inline;font-family:Arial Narrow;-inkscape-font-specification:Arial Narrow Bold"
         inkscape:connector-curvature="0" />
      <path
         id="text5694"
         d="m 241.37915,245.00815 1.75235,-1.01172 7.84082,13.5807 c 0.12913,-0.70605 0.38955,-1.50367 0.78129,-2.39287 0.39628,-0.88134 0.80566,-1.61236 1.22817,-2.19306 l 1.18945,2.0602 c -0.644,1.10851 -1.10289,2.27331 -1.3767,3.4944 -0.2817,1.2256 -0.35377,2.30389 -0.21622,3.23486 l -1.13666,0.65625 -10.0625,-17.42876 m -1.82691,7.11694 -1.72586,1.24902 c -0.7801,-1.02307 -1.57602,-1.66336 -2.38777,-1.9209 -0.81507,-0.24509 -1.55413,-0.17623 -2.21718,0.20659 -0.82882,0.47851 -1.32442,1.26983 -1.48683,2.37397 -0.15784,1.11201 0.14377,2.32712 0.90483,3.64533 0.7155,1.23926 1.56127,2.0297 2.53731,2.37131 0.97271,0.35404 1.89715,0.27813 2.77332,-0.22771 0.52886,-0.30535 0.93956,-0.74244 1.2321,-1.31126 0.2892,-0.55639 0.41532,-1.17649 0.37836,-1.86029 l 1.79618,-0.6897 3.76216,9.71546 -7.0686,4.08106 -1.17578,-2.03652 5.67145,-3.27441 -1.92374,-5.10937 c -0.42534,1.21381 -1.11161,2.09417 -2.05882,2.64105 -1.19191,0.68814 -2.5199,0.77601 -3.98397,0.26364 -1.46739,-0.49997 -2.69784,-1.61032 -3.69133,-3.33108 -0.97981,-1.69711 -1.3786,-3.40866 -1.19636,-5.13466 0.17891,-1.71357 1.01035,-2.99873 2.49432,-3.8555 1.23138,-0.71094 2.51941,-0.88625 3.86409,-0.52595 1.34134,0.37276 2.50871,1.28273 3.50212,2.72992"
         style="font-size:28px;font-style:normal;font-variant:normal;font-weight:bold;font-stretch:normal;fill:#ffffff;fill-opacity:1;stroke:none;display:inline;font-family:Arial Narrow;-inkscape-font-specification:Arial Narrow Bold"
         inkscape:connector-curvature="0" />
      <path
         id="text5698"
         d="m 164.5957,251.08093 1.18262,-2.04836 9.41295,5.43457 c -0.45483,0.84248 -1.23896,1.62641 -2.35237,2.35178 -1.12131,0.7208 -2.78385,1.37647 -4.98765,1.96697 -2.57273,0.68269 -4.36691,1.32023 -5.38252,1.91264 -1.02014,0.60029 -1.75124,1.28327 -2.19332,2.04894 -0.51039,0.88405 -0.66463,1.75275 -0.46268,2.60609 0.18952,0.85665 0.66317,1.50372 1.42092,1.94124 0.81304,0.46938 1.65321,0.55453 2.52052,0.25542 0.86734,-0.29914 1.62456,-1.00913 2.27169,-2.12999 l 1.66982,1.26402 c -1.08787,1.59259 -2.27987,2.57255 -3.57597,2.93987 -1.30854,0.37062 -2.62981,0.17085 -3.96382,-0.59931 -1.45238,-0.83856 -2.26702,-1.96141 -2.44391,-3.36858 -0.18476,-1.41174 0.0829,-2.74119 0.80291,-3.98835 0.63804,-1.10509 1.54305,-1.99814 2.71504,-2.67914 1.16747,-0.67313 3.05578,-1.38262 5.66499,-2.12846 1.65718,-0.46405 2.75133,-0.8006 3.28248,-1.00964 0.52326,-0.21361 0.99127,-0.45911 1.40401,-0.73651 l -6.98571,-4.0332 m -7.22392,-6.90188 1.75235,1.01172 -7.84082,13.5807 c 0.67602,-0.2412 1.49699,-0.41446 2.46293,-0.51982 0.9614,-0.0975 1.79917,-0.10844 2.51333,-0.0329 l -1.18945,2.0602 c -1.28201,-0.003 -2.5202,0.18151 -3.71459,0.55494 -1.20226,0.36885 -2.17212,0.84557 -2.90959,1.43017 l -1.13666,-0.65625 10.0625,-17.42876"
         style="font-size:28px;font-style:normal;font-variant:normal;font-weight:bold;font-stretch:normal;fill:#ffffff;fill-opacity:1;stroke:none;display:inline;font-family:Arial Narrow;-inkscape-font-specification:Arial Narrow Bold"
         inkscape:connector-curvature="0" />
      <path
         id="text5702"
         d="m 138.23669,224.17882 2.04835,-1.18262 5.43457,9.41295 c -0.81514,0.5022 -1.88617,0.78904 -3.21311,0.86052 -1.33148,0.0636 -3.09912,-0.19987 -5.30291,-0.79037 -2.5694,-0.69515 -4.44197,-1.0401 -5.61772,-1.03487 -1.18361,0.01 -2.15825,0.23572 -2.92394,0.67778 -0.88405,0.51041 -1.45196,1.18561 -1.70374,2.02559 -0.26419,0.83664 -0.17755,1.63385 0.25993,2.39162 0.46942,0.81302 1.15446,1.30684 2.05513,1.48146 0.9007,0.17461 1.91148,-0.0617 3.03233,-0.70878 l 0.8141,1.92959 c -1.73842,0.83529 -3.26069,1.08796 -4.56681,0.75801 -1.31855,-0.3333 -2.36292,-1.16694 -3.13312,-2.50093 -0.83852,-1.45239 -0.98259,-2.83214 -0.4322,-4.13923 0.54586,-1.31498 1.44237,-2.33249 2.68951,-3.05255 1.10511,-0.63801 2.3354,-0.95891 3.69088,-0.96269 1.34761,7.8e-4 3.33769,0.33052 5.97024,0.9892 1.66719,0.42671 2.78304,0.68233 3.34754,0.76686 0.55996,0.0767 1.08802,0.098 1.58417,0.0642 l -4.0332,-6.98572 m -2.23778,-8.60641 -4.15591,2.39941 3.56152,6.16873 -1.95363,1.12793 -15.00111,-0.006 -0.82031,-1.42082 11.24818,-6.49414 -1.11426,-1.92995 1.95363,-1.12793 1.11426,1.92995 4.15591,-2.39941 1.01172,1.75235 m -6.10954,3.52734 -7.82637,4.51856 10.39668,-0.0667 -2.57031,-4.45191"
         style="font-size:28px;font-style:normal;font-variant:normal;font-weight:bold;font-stretch:normal;fill:#ffffff;fill-opacity:1;stroke:none;display:inline;font-family:Arial Narrow;-inkscape-font-specification:Arial Narrow Bold"
         inkscape:connector-curvature="0" />
      <path
         id="text5706"
         d="m 129.3536,161.26321 0.72755,-1.91641 c 2.48296,0.9494 4.15054,0.68607 5.00275,-0.79001 0.46029,-0.79724 0.52358,-1.6816 0.18988,-2.65309 -0.3416,-0.97604 -1.04916,-1.77395 -2.12267,-2.39376 -1.01036,-0.58332 -1.97834,-0.78434 -2.90392,-0.60306 -0.92558,0.18129 -1.61396,0.66266 -2.06514,1.4441 -0.1914,0.33154 -0.34944,0.78757 -0.47413,1.3681 l -1.75454,-1.28136 0.1809,-0.25865 c 0.49676,-0.86038 0.63565,-1.71162 0.41667,-2.55372 -0.21895,-0.84208 -0.77047,-1.51834 -1.65455,-2.02877 -0.81301,-0.46938 -1.59411,-0.6204 -2.34328,-0.45304 -0.75704,0.16283 -1.32242,0.56787 -1.69612,1.21513 -0.38736,0.67095 -0.455,1.38967 -0.20293,2.15615 0.24876,0.75406 0.8616,1.49729 1.8385,2.22969 l -1.38377,1.52176 c -1.35635,-1.07778 -2.19011,-2.2222 -2.50128,-3.43327 -0.31114,-1.21104 -0.14999,-2.36517 0.48346,-3.46237 0.66538,-1.15243 1.65673,-1.88513 2.97405,-2.19809 1.31734,-0.31293 2.62328,-0.0957 3.9178,0.65167 0.78935,0.45575 1.38766,1.03273 1.79493,1.73093 0.41184,0.69035 0.61368,1.44362 0.60551,2.25982 0.486,-0.47718 1.01764,-0.79645 1.59493,-0.95782 0.57729,-0.16134 1.23592,-0.18102 1.97587,-0.059 0.73996,0.12201 1.48489,0.39949 2.23477,0.83242 1.59447,0.92058 2.62968,2.14447 3.10562,3.67168 0.46804,1.52266 0.32381,2.93914 -0.4327,4.24945 -0.70182,1.2156 -1.73858,1.99048 -3.11028,2.32466 -1.37169,0.33419 -2.83766,0.12982 -4.39788,-0.61311 m 2.41329,-13.36746 c -2.91267,-1.68163 -4.89331,-3.34611 -5.94191,-4.99346 -1.04401,-1.65522 -1.12396,-3.2485 -0.23986,-4.77985 0.78387,-1.35765 2.00917,-2.07631 3.67593,-2.15595 2.01507,-0.0995 4.6368,0.78264 7.86522,2.64656 2.8969,1.67254 4.87359,3.33475 5.93007,4.98663 1.04858,1.64734 1.12854,3.24063 0.23987,4.77985 -0.78385,1.35767 -2.08948,2.08784 -3.91689,2.19049 -1.82284,0.0948 -4.36031,-0.79665 -7.61243,-2.67427 m 1.03223,-1.78786 c 2.81798,1.62696 4.86341,2.45005 6.1363,2.46928 1.26956,0.007 2.14815,-0.41212 2.63579,-1.25673 0.46028,-0.79723 0.35992,-1.7445 -0.30107,-2.84181 -0.661,-1.09729 -2.38865,-2.45258 -5.18293,-4.06588 -2.82585,-1.63149 -4.87357,-2.45064 -6.14314,-2.45744 -1.26498,-0.0147 -2.14586,0.4082 -2.64261,1.26857 -0.45572,0.78936 -0.35309,1.73268 0.3079,2.82997 0.66557,1.08942 2.39548,2.44076 5.18976,4.05404"
         style="font-size:28px;font-style:normal;font-variant:normal;font-weight:bold;font-stretch:normal;fill:#ffffff;fill-opacity:1;stroke:none;display:inline;font-family:Arial Narrow;-inkscape-font-specification:Arial Narrow Bold"
         inkscape:connector-curvature="0" />
      <path
         id="text5710"
         d="m 152.86712,128.48838 1.58829,-1.29588 c 1.6756,2.06369 3.25143,2.66942 4.72751,1.81721 0.79724,-0.46029 1.29423,-1.19452 1.49098,-2.20271 0.19219,-1.01607 -0.0216,-2.06086 -0.6414,-3.13438 -0.58334,-1.01036 -1.32112,-1.66843 -2.21334,-1.97424 -0.89222,-0.30578 -1.72906,-0.23309 -2.51051,0.21807 -0.33153,0.19142 -0.69642,0.50733 -1.09466,0.94774 l -0.8788,-1.98696 0.28599,-0.13355 c 0.86039,-0.49673 1.4063,-1.16448 1.63771,-2.00325 0.23142,-0.83875 0.0919,-1.70016 -0.4185,-2.58424 -0.4694,-0.81301 -1.07034,-1.33434 -1.80282,-1.56399 -0.73703,-0.2375 -1.42918,-0.16941 -2.07645,0.20427 -0.67094,0.38739 -1.08888,0.97599 -1.25381,1.76583 -0.1616,0.77741 -0.002,1.72749 0.47734,2.85022 l -1.95926,0.62599 c -0.63575,-1.61156 -0.7856,-3.01954 -0.44954,-4.22394 0.33606,-1.20437 1.05269,-2.12329 2.14987,-2.75677 1.15245,-0.66535 2.37733,-0.80421 3.67465,-0.41658 1.29732,0.38767 2.31968,1.22876 3.06708,2.52327 0.45572,0.78936 0.68539,1.58819 0.68899,2.39649 0.0115,0.80378 -0.19035,1.55705 -0.60552,2.25982 0.65948,-0.17025 1.27953,-0.18092 1.86016,-0.032 0.58062,0.14892 1.16085,0.46119 1.74067,0.93681 0.57982,0.47565 1.0862,1.08841 1.51915,1.83827 0.92056,1.59449 1.20514,3.17202 0.85371,4.73259 -0.356,1.55268 -1.18914,2.70728 -2.49945,3.46378 -1.2156,0.70183 -2.5009,0.85452 -3.85592,0.45808 -1.35502,-0.39644 -2.52239,-1.30641 -3.50212,-2.72992 m 11.08242,-6.39843 1.58829,-1.29588 c 1.6756,2.06368 3.25143,2.66941 4.72751,1.8172 0.79724,-0.46028 1.29423,-1.19452 1.49098,-2.20271 0.19218,-1.01607 -0.0216,-2.06086 -0.6414,-3.13438 -0.58334,-1.01035 -1.32112,-1.66843 -2.21334,-1.97424 -0.89222,-0.30578 -1.72906,-0.23309 -2.51051,0.21807 -0.33153,0.19142 -0.69642,0.50733 -1.09466,0.94774 l -0.8788,-1.98696 0.28599,-0.13355 c 0.86039,-0.49673 1.4063,-1.16448 1.63771,-2.00325 0.23142,-0.83875 0.0919,-1.70015 -0.4185,-2.58424 -0.4694,-0.813 -1.07034,-1.33434 -1.80282,-1.56398 -0.73703,-0.23751 -1.42918,-0.16942 -2.07645,0.20426 -0.67094,0.38739 -1.08888,0.976 -1.25381,1.76583 -0.1616,0.77741 -0.002,1.72749 0.47734,2.85022 l -1.95926,0.62599 c -0.63575,-1.61156 -0.7856,-3.01954 -0.44954,-4.22394 0.33606,-1.20436 1.05269,-2.12329 2.14987,-2.75677 1.15245,-0.66535 2.37733,-0.80421 3.67465,-0.41658 1.29732,0.38767 2.31968,1.22876 3.06707,2.52327 0.45573,0.78936 0.68539,1.58819 0.689,2.39649 0.0115,0.80378 -0.19035,1.55705 -0.60552,2.25982 0.65947,-0.17025 1.27952,-0.18092 1.86016,-0.032 0.58062,0.14892 1.16085,0.46119 1.74067,0.93681 0.57982,0.47565 1.0862,1.08841 1.51915,1.83827 0.92056,1.59449 1.20513,3.17202 0.85371,4.73259 -0.356,1.55268 -1.18914,2.70728 -2.49945,3.46379 -1.2156,0.70182 -2.5009,0.85451 -3.85592,0.45807 -1.35502,-0.39644 -2.52239,-1.30641 -3.50212,-2.72991"
         style="font-size:28px;font-style:normal;font-variant:normal;font-weight:bold;font-stretch:normal;fill:#ffffff;fill-opacity:1;stroke:none;display:inline;font-family:Arial Narrow;-inkscape-font-specification:Arial Narrow Bold"
         inkscape:connector-curvature="0" />
    </g>
  </g>
  <g
     inkscape:groupmode="layer"
     id="foreground"
     inkscape:label="foreground"
     style="display:inline">
    <path
       transform="translate(-30.452878,-17.814455)"
       style="fill:none;stroke:#ff0606;stroke-width:2;stroke-linecap:butt;stroke-linejoin:miter;stroke-miterlimit:4;stroke-opacity:1;stroke-dasharray:none;stroke-dashoffset:0;display:inline"
       d="m 200.45289,77.613064 0,26.390236"
       id="path4785"
       inkscape:connector-curvature="0" />
    <path
       transform="translate(-30.452878,-17.814455)"
       id="path5663"
       style="fill:#ff3506;fill-opacity:1;fill-rule:evenodd;stroke:none;display:inline"
       d="m 92.224506,187.81445 -13.788582,4.91757 0,-9.83512 13.788582,4.91755 z m 216.263764,0 13.78858,4.91757 0,-9.83512 -13.78858,4.91755 z m -108.03538,108.88463 4.91757,13.78858 -9.83512,0 4.91755,-13.78858 z m -76.62193,-32.39707 -6.27275,13.22725 -6.95448,-6.95448 13.22723,-6.27277 z m 152.92157,-152.92157 13.22725,-6.27275 -6.95448,-6.954483 -6.27277,13.227233 z m -153.25631,-0.47123 -13.22725,-6.27275 6.95448,-6.954483 6.27277,13.227233 z m 153.85682,153.85684 13.22725,6.27275 -6.95448,6.95448 -6.27277,-13.22723 z"
       inkscape:connector-curvature="0" />
    <path
       transform="matrix(1.2990331,0,0,1.2990331,-78.672041,-73.389663)"
       d="m 305.71429,187.36218 a 114.28571,114.28571 0 1 1 -228.57143,0 114.28571,114.28571 0 1 1 228.57143,0 z"
       sodipodi:ry="114.28571"
       sodipodi:rx="114.28571"
       sodipodi:cy="187.36218"
       sodipodi:cx="191.42857"
       id="path5716"
       style="fill:none;stroke:url(#linearGradient5947);stroke-width:5.38862324;stroke-linecap:butt;stroke-linejoin:miter;stroke-miterlimit:4;stroke-opacity:1;stroke-dasharray:none;stroke-dashoffset:0;display:inline;filter:url(#filter5743)"
       sodipodi:type="arc" />
    <rect
       y="125.88988"
       x="124.00237"
       height="93.078201"
       width="4.0781684"
       id="rect3034"
       style="fill:#ff3506;fill-opacity:1;fill-rule:evenodd;stroke:#ff3506;stroke-width:1.69276202;stroke-linecap:butt;stroke-linejoin:miter;stroke-miterlimit:4;stroke-opacity:1;stroke-dasharray:none;display:inline" />
    <rect
       y="133.4431"
       x="119.92422"
       height="3.5983839"
       width="3.8382761"
       id="rect3036"
       style="fill:#ff3506;fill-opacity:1;fill-rule:evenodd;stroke:#ff3506;stroke-width:1.69276202;stroke-linecap:butt;stroke-linejoin:miter;stroke-miterlimit:4;stroke-opacity:1;stroke-dasharray:none;display:inline" />
    <rect
       style="fill:#ff3506;fill-opacity:1;fill-rule:evenodd;stroke:#ff3506;stroke-width:1.69276202;stroke-linecap:butt;stroke-linejoin:miter;stroke-miterlimit:4;stroke-opacity:1;stroke-dasharray:none;display:inline"
       id="rect3038"
       width="3.8382761"
       height="3.5983839"
       x="119.92422"
       y="202.67667" />
    <rect
       y="168.35866"
       x="128.27719"
       height="3.6848965"
       width="3.2051125"
       id="rect3046"
       style="fill:#ff3506;fill-opacity:1;fill-rule:evenodd;stroke:#ff3506;stroke-width:1.69276202;stroke-linecap:butt;stroke-linejoin:miter;stroke-miterlimit:4;stroke-opacity:1;stroke-dasharray:none;display:inline" />
    <path
       style="fill:none;stroke:#ff3506;stroke-width:1.69276202;stroke-linecap:butt;stroke-linejoin:miter;stroke-miterlimit:4;stroke-opacity:1;stroke-dasharray:none;display:inline"
       d="m 109.37005,109.07759 c 9.13423,0 9.77022,0.38789 9.77022,26.87806 0,26.49015 0.1085,25.8539 -9.39791,25.8539 -9.50649,0 -8.96609,0.0116 -9.30392,-25.59528 0,-27.64465 1.10228,-27.13668 8.93161,-27.13668 z"
       id="path3050"
       inkscape:connector-curvature="0"
       sodipodi:nodetypes="csscc" />
    <path
       sodipodi:nodetypes="csscc"
       inkscape:connector-curvature="0"
       id="path3052"
       d="m 109.37005,178.18977 c 9.13423,0 9.77022,0.3879 9.77022,26.87807 0,26.49014 0.1085,25.8539 -9.39791,25.8539 -9.50649,0 -8.96609,0.0116 -9.30392,-25.59528 0,-27.64465 1.10228,-27.13669 8.93161,-27.13669 z"
       style="fill:none;stroke:#ff3506;stroke-width:1.69276202;stroke-linecap:butt;stroke-linejoin:miter;stroke-miterlimit:4;stroke-opacity:1;stroke-dasharray:none;display:inline" />
    <path
       id="path3118"
       style="fill:none;stroke:#ff3506;stroke-width:1.69276202;stroke-linecap:butt;stroke-linejoin:miter;stroke-miterlimit:4;stroke-opacity:1;stroke-dasharray:none"
       d="m 208.49111,221.55946 0.0208,-111.35616 2.8e-4,0 -8.39968,0 0,85.43196 -60.22502,1e-5 0,-85.43196 -8.39969,0 2.8e-4,0 0.0208,111.35616 z"
       inkscape:connector-curvature="0"
       sodipodi:nodetypes="ccccccccccc" />
    <rect
       y="125.88988"
       x="-215.99763"
       height="93.078201"
       width="4.0781684"
       id="rect3120"
       style="fill:#ff3506;fill-opacity:1;fill-rule:evenodd;stroke:#ff3506;stroke-width:1.69276202;stroke-linecap:butt;stroke-linejoin:miter;stroke-miterlimit:4;stroke-opacity:1;stroke-dasharray:none"
       transform="scale(-1,1)" />
    <rect
       y="133.4431"
       x="-220.07578"
       height="3.5983839"
       width="3.8382761"
       id="rect3122"
       style="fill:#ff3506;fill-opacity:1;fill-rule:evenodd;stroke:#ff3506;stroke-width:1.69276202;stroke-linecap:butt;stroke-linejoin:miter;stroke-miterlimit:4;stroke-opacity:1;stroke-dasharray:none"
       transform="scale(-1,1)" />
    <rect
       style="fill:#ff3506;fill-opacity:1;fill-rule:evenodd;stroke:#ff3506;stroke-width:1.69276202;stroke-linecap:butt;stroke-linejoin:miter;stroke-miterlimit:4;stroke-opacity:1;stroke-dasharray:none"
       id="rect3124"
       width="3.8382761"
       height="3.5983839"
       x="-220.07578"
       y="202.67668"
       transform="scale(-1,1)" />
    <rect
       y="168.35866"
       x="-211.72282"
       height="3.6848965"
       width="3.2051125"
       id="rect3126"
       style="fill:#ff3506;fill-opacity:1;fill-rule:evenodd;stroke:#ff3506;stroke-width:1.69276202;stroke-linecap:butt;stroke-linejoin:miter;stroke-miterlimit:4;stroke-opacity:1;stroke-dasharray:none"
       transform="scale(-1,1)" />
    <path
       style="fill:none;stroke:#ff3506;stroke-width:1.69276202;stroke-linecap:butt;stroke-linejoin:miter;stroke-miterlimit:4;stroke-opacity:1;stroke-dasharray:none"
       d="m 230.62994,109.07758 c -9.13423,0 -9.77022,0.38789 -9.77022,26.87806 0,26.49015 -0.1085,25.8539 9.39792,25.8539 9.50648,0 8.96608,0.0116 9.30392,-25.59528 0,-27.64465 -1.10229,-27.13668 -8.93162,-27.13668 z"
       id="path3128"
       inkscape:connector-curvature="0"
       sodipodi:nodetypes="csscc" />
    <path
       sodipodi:nodetypes="csscc"
       inkscape:connector-curvature="0"
       id="path3130"
       d="m 230.62994,178.18976 c -9.13423,0 -9.77022,0.3879 -9.77022,26.87807 0,26.49014 -0.1085,25.8539 9.39792,25.8539 9.50648,0 8.96608,0.0116 9.30392,-25.59528 0,-27.64465 -1.10229,-27.13669 -8.93162,-27.13669 z"
       style="fill:none;stroke:#ff3506;stroke-width:1.69276202;stroke-linecap:butt;stroke-linejoin:miter;stroke-miterlimit:4;stroke-opacity:1;stroke-dasharray:none" />
  </g>
</svg>
